<svg xmlns="http://www.w3.org/2000/svg" width="104" height="104" fill="none" viewBox="0 0 104 104"><rect width="104" height="104" fill="#393A31"/><path fill="#F6F6F4" d="M35.2656 44.864C35.2656 45.168 35.1056 45.32 34.7856 45.32C34.6256 45.32 34.4656 45.312 34.3056 45.296C34.1456 45.28 33.9936 45.272 33.8496 45.272C33.6896 45.272 33.5456 45.36 33.4176 45.536C33.2896 45.712 33.2016 45.872 33.1536 46.016C32.8976 46.672 32.6656 47.336 32.4576 48.008C32.2656 48.68 32.0576 49.352 31.8336 50.024C31.4336 51.304 31.0176 52.576 30.5856 53.84C30.1536 55.104 29.7216 56.376 29.2896 57.656C29.0816 58.264 28.8736 58.872 28.6656 59.48C28.4736 60.088 28.2736 60.696 28.0656 61.304C28.0016 61.48 27.9056 61.664 27.7776 61.856C27.6496 62.032 27.4736 62.12 27.2496 62.12L25.1376 62.168C24.5616 60.36 23.9296 58.52 23.2416 56.648C22.5696 54.776 21.9056 52.92 21.2496 51.08C21.0416 50.472 20.8336 49.912 20.6256 49.4C20.4336 48.888 20.2256 48.328 20.0016 47.72C19.9216 47.464 19.8096 47.168 19.6656 46.832C19.5216 46.48 19.4016 46.176 19.3056 45.92C19.1936 45.648 18.9936 45.496 18.7056 45.464C18.4336 45.432 18.1776 45.416 17.9376 45.416C17.7776 45.416 17.6336 45.392 17.5056 45.344C17.3776 45.296 17.3136 45.168 17.3136 44.96C17.3136 44.832 17.3536 44.72 17.4336 44.624C17.5136 44.512 17.6256 44.456 17.7696 44.456C18.0576 44.456 18.3456 44.464 18.6336 44.48C18.9376 44.496 19.2416 44.504 19.5456 44.504C20.2816 44.504 21.0176 44.504 21.7536 44.504C22.4896 44.504 23.2256 44.496 23.9616 44.48C24.1376 44.464 24.3216 44.456 24.5136 44.456C24.7056 44.44 24.8896 44.432 25.0656 44.432C25.1936 44.432 25.2816 44.48 25.3296 44.576C25.3936 44.672 25.4256 44.776 25.4256 44.888C25.4256 45 25.3936 45.104 25.3296 45.2C25.2816 45.296 25.1936 45.344 25.0656 45.344C24.8096 45.344 24.5536 45.344 24.2976 45.344C24.0576 45.328 23.8096 45.32 23.5536 45.32C23.1856 45.32 23.0016 45.512 23.0016 45.896C23.0016 46.056 23.0256 46.232 23.0736 46.424C23.1376 46.6 23.1936 46.768 23.2416 46.928C23.9136 49.056 24.6096 51.208 25.3296 53.384C26.0496 55.56 26.7456 57.656 27.4176 59.672C28.1216 57.608 28.7776 55.528 29.3856 53.432C30.0096 51.336 30.5856 49.24 31.1136 47.144C31.1616 46.92 31.2176 46.68 31.2816 46.424C31.3456 46.168 31.3776 45.928 31.3776 45.704C31.3776 45.432 31.3056 45.296 31.1616 45.296C31.0176 45.28 30.8336 45.272 30.6096 45.272C30.4656 45.272 30.3216 45.288 30.1776 45.32C30.0496 45.336 29.9136 45.344 29.7696 45.344C29.6416 45.344 29.5136 45.312 29.3856 45.248C29.2736 45.168 29.2176 45.048 29.2176 44.888C29.2176 44.6 29.3536 44.456 29.6256 44.456C29.8496 44.456 30.0736 44.464 30.2976 44.48C30.5376 44.496 30.7696 44.504 30.9936 44.504C31.2176 44.504 31.4336 44.504 31.6416 44.504C31.8496 44.504 32.0576 44.496 32.2656 44.48C32.6816 44.48 33.1056 44.464 33.5376 44.432C33.9856 44.4 34.4176 44.384 34.8336 44.384C34.9616 44.384 35.0656 44.44 35.1456 44.552C35.2256 44.648 35.2656 44.752 35.2656 44.864ZM44.4314 53.576C44.4314 53.256 44.4154 52.872 44.3834 52.424C44.3514 51.976 44.2714 51.544 44.1434 51.128C44.0314 50.696 43.8474 50.336 43.5914 50.048C43.3354 49.76 42.9834 49.616 42.5354 49.616C42.1034 49.616 41.7194 49.76 41.3834 50.048C41.0634 50.32 40.7914 50.672 40.5674 51.104C40.3434 51.52 40.1674 51.96 40.0394 52.424C39.9114 52.872 39.8154 53.272 39.7514 53.624C40.0234 53.624 40.2874 53.632 40.5434 53.648C40.8154 53.648 41.0794 53.648 41.3354 53.648C42.3754 53.648 43.4074 53.624 44.4314 53.576ZM47.8874 58.88C47.8874 58.928 47.8714 59 47.8394 59.096C47.8234 59.176 47.7994 59.24 47.7674 59.288C47.6554 59.544 47.4474 59.84 47.1434 60.176C46.8394 60.496 46.5674 60.744 46.3274 60.92C45.2554 61.736 44.0154 62.144 42.6074 62.144C41.3434 62.144 40.2474 61.88 39.3194 61.352C38.3914 60.808 37.6794 60.056 37.1834 59.096C36.6874 58.136 36.4394 57.032 36.4394 55.784C36.4394 54.536 36.6794 53.408 37.1594 52.4C37.6554 51.376 38.3594 50.568 39.2714 49.976C40.1994 49.368 41.3114 49.064 42.6074 49.064C44.0954 49.064 45.2874 49.472 46.1834 50.288C47.0794 51.104 47.5274 52.272 47.5274 53.792C47.5274 54.208 47.3354 54.416 46.9514 54.416C46.2474 54.416 45.5434 54.408 44.8394 54.392C44.1354 54.376 43.4314 54.368 42.7274 54.368C42.2154 54.368 41.7034 54.368 41.1914 54.368C40.6794 54.368 40.1674 54.376 39.6554 54.392C39.6074 54.872 39.5834 55.36 39.5834 55.856C39.5834 56.304 39.6394 56.832 39.7514 57.44C39.8794 58.048 40.0634 58.64 40.3034 59.216C40.5594 59.792 40.8874 60.272 41.2874 60.656C41.6874 61.024 42.1754 61.208 42.7514 61.208C43.4714 61.208 44.0714 61.104 44.5514 60.896C45.0474 60.688 45.4874 60.392 45.8714 60.008C46.2554 59.624 46.6474 59.168 47.0474 58.64C47.0954 58.576 47.1434 58.528 47.1914 58.496C47.2554 58.448 47.3274 58.424 47.4074 58.424C47.5194 58.424 47.6234 58.472 47.7194 58.568C47.8314 58.648 47.8874 58.752 47.8874 58.88ZM59.0695 51.944C59.0695 52.104 59.0215 52.256 58.9255 52.4C58.8455 52.528 58.7175 52.592 58.5415 52.592C58.2695 52.592 58.0855 52.48 57.9895 52.256C57.8935 52.048 57.7895 51.808 57.6775 51.536C57.5815 51.248 57.4455 51 57.2695 50.792C57.1095 50.584 56.8775 50.48 56.5735 50.48C56.4135 50.48 56.2615 50.512 56.1175 50.576C55.9735 50.64 55.8375 50.72 55.7095 50.816C55.1975 51.168 54.7815 51.672 54.4615 52.328C54.1575 52.968 53.9575 53.6 53.8615 54.224V54.2C53.8615 54.792 53.8615 55.384 53.8615 55.976C53.8615 56.568 53.8615 57.16 53.8615 57.752V60.704C53.8615 60.976 53.9335 61.152 54.0775 61.232C54.2375 61.312 54.4215 61.344 54.6295 61.328C54.8535 61.296 55.0535 61.28 55.2295 61.28C55.4535 61.28 55.5655 61.4 55.5655 61.64C55.5655 61.896 55.4375 62.024 55.1815 62.024C54.7015 62.024 54.2215 62.016 53.7415 62C53.2615 61.984 52.7815 61.976 52.3015 61.976C51.8055 61.976 51.3095 61.984 50.8135 62C50.3175 62.032 49.8135 62.048 49.3015 62.048C49.1895 62.048 49.1095 62.008 49.0615 61.928C49.0135 61.832 48.9895 61.744 48.9895 61.664C48.9895 61.424 49.1175 61.304 49.3735 61.304C49.5335 61.304 49.6855 61.312 49.8295 61.328C49.9895 61.328 50.1495 61.328 50.3095 61.328C50.5015 61.328 50.6295 61.264 50.6935 61.136C50.7575 61.008 50.7895 60.864 50.7895 60.704C50.7895 59.568 50.7895 58.424 50.7895 57.272C50.7895 56.12 50.7895 54.976 50.7895 53.84C50.7895 53.536 50.7895 53.232 50.7895 52.928C50.7895 52.624 50.7895 52.32 50.7895 52.016C50.7895 51.84 50.7735 51.632 50.7415 51.392C50.7095 51.152 50.6375 50.936 50.5255 50.744C50.4295 50.552 50.2615 50.456 50.0215 50.456C49.8615 50.456 49.7015 50.48 49.5415 50.528C49.3975 50.56 49.2375 50.576 49.0615 50.576C48.8215 50.576 48.7015 50.456 48.7015 50.216C48.7015 50.04 48.7895 49.92 48.9655 49.856C49.1895 49.776 49.4215 49.728 49.6615 49.712C49.9015 49.68 50.1335 49.64 50.3575 49.592C50.5655 49.544 50.8375 49.48 51.1735 49.4C51.5095 49.304 51.8375 49.224 52.1575 49.16C52.4935 49.08 52.7495 49.04 52.9255 49.04C53.1655 49.04 53.3415 49.128 53.4535 49.304C53.5015 49.384 53.5495 49.576 53.5975 49.88C53.6455 50.168 53.6855 50.464 53.7175 50.768C53.7495 51.072 53.7655 51.288 53.7655 51.416C54.2615 50.792 54.8135 50.224 55.4215 49.712C56.0295 49.2 56.7655 48.944 57.6295 48.944C57.8535 48.944 58.0855 48.992 58.3255 49.088C58.5815 49.168 58.7415 49.336 58.8055 49.592C58.8855 49.896 58.9495 50.288 58.9975 50.768C59.0455 51.232 59.0695 51.624 59.0695 51.944ZM68.5336 52.88C68.5336 52.464 68.4616 52.032 68.3176 51.584C68.1896 51.12 67.9736 50.728 67.6696 50.408C67.3816 50.088 66.9816 49.928 66.4696 49.928C66.2136 49.928 65.9656 49.96 65.7256 50.024C65.4856 50.088 65.2536 50.208 65.0296 50.384C64.5816 50.736 64.2216 51.232 63.9496 51.872C63.6936 52.512 63.5096 53.192 63.3976 53.912C63.3016 54.616 63.2536 55.24 63.2536 55.784C63.2536 56.232 63.2776 56.76 63.3256 57.368C63.3896 57.96 63.5096 58.544 63.6856 59.12C63.8616 59.696 64.1256 60.176 64.4776 60.56C64.8296 60.928 65.3096 61.112 65.9176 61.112C66.2856 61.112 66.6456 60.984 66.9976 60.728C67.3496 60.456 67.6616 60.136 67.9336 59.768C68.2216 59.4 68.4216 59.056 68.5336 58.736V52.88ZM73.5736 60.992C73.5736 61.136 73.4616 61.28 73.2376 61.424C73.0296 61.552 72.7736 61.664 72.4696 61.76C72.1656 61.856 71.8696 61.936 71.5816 62C71.2936 62.048 71.0856 62.072 70.9576 62.072C70.3816 62.072 69.9096 61.896 69.5416 61.544C69.1736 61.192 68.8856 60.768 68.6776 60.272C68.3576 60.72 67.9256 61.12 67.3816 61.472C66.8536 61.824 66.3096 62 65.7496 62C65.2536 62 64.7256 61.952 64.1656 61.856C63.6216 61.76 63.1336 61.568 62.7016 61.28C61.8216 60.688 61.1656 59.904 60.7336 58.928C60.3016 57.936 60.0856 56.928 60.0856 55.904C60.0856 54.576 60.3256 53.416 60.8056 52.424C61.3016 51.416 62.0216 50.632 62.9656 50.072C63.9096 49.512 65.0616 49.232 66.4216 49.232C66.7576 49.232 67.1096 49.304 67.4776 49.448C67.8616 49.576 68.1976 49.72 68.4856 49.88V45.728C68.4856 45.552 68.4616 45.352 68.4136 45.128C68.3816 44.888 68.2456 44.768 68.0056 44.768C67.7656 44.768 67.5256 44.776 67.2856 44.792C67.0616 44.808 66.8376 44.816 66.6136 44.816C66.3896 44.816 66.2776 44.72 66.2776 44.528C66.2776 44.336 66.3656 44.232 66.5416 44.216C66.6696 44.184 66.7976 44.168 66.9256 44.168C67.0536 44.168 67.1736 44.16 67.2856 44.144C67.5896 44.112 67.8856 44.072 68.1736 44.024C68.4616 43.976 68.7496 43.928 69.0376 43.88C69.3416 43.816 69.6376 43.752 69.9256 43.688C70.2136 43.624 70.5016 43.552 70.7896 43.472C70.8696 43.44 70.9416 43.416 71.0056 43.4C71.0696 43.384 71.1336 43.376 71.1976 43.376C71.4376 43.376 71.5576 43.504 71.5576 43.76V59.384C71.5576 59.576 71.5656 59.8 71.5816 60.056C71.6136 60.296 71.6856 60.512 71.7976 60.704C71.9256 60.88 72.1176 60.968 72.3736 60.968C72.5496 60.968 72.7256 60.928 72.9016 60.848C73.0936 60.768 73.2456 60.728 73.3576 60.728C73.4376 60.728 73.4936 60.76 73.5256 60.824C73.5576 60.872 73.5736 60.928 73.5736 60.992ZM82.7283 53.576C82.7283 53.256 82.7123 52.872 82.6803 52.424C82.6483 51.976 82.5683 51.544 82.4403 51.128C82.3283 50.696 82.1443 50.336 81.8883 50.048C81.6323 49.76 81.2803 49.616 80.8323 49.616C80.4003 49.616 80.0163 49.76 79.6803 50.048C79.3603 50.32 79.0883 50.672 78.8643 51.104C78.6403 51.52 78.4643 51.96 78.3363 52.424C78.2083 52.872 78.1123 53.272 78.0483 53.624C78.3203 53.624 78.5843 53.632 78.8403 53.648C79.1123 53.648 79.3763 53.648 79.6323 53.648C80.6723 53.648 81.7043 53.624 82.7283 53.576ZM86.1843 58.88C86.1843 58.928 86.1683 59 86.1363 59.096C86.1203 59.176 86.0963 59.24 86.0643 59.288C85.9523 59.544 85.7443 59.84 85.4403 60.176C85.1363 60.496 84.8643 60.744 84.6243 60.92C83.5523 61.736 82.3123 62.144 80.9043 62.144C79.6403 62.144 78.5443 61.88 77.6163 61.352C76.6883 60.808 75.9763 60.056 75.4803 59.096C74.9843 58.136 74.7363 57.032 74.7363 55.784C74.7363 54.536 74.9763 53.408 75.4563 52.4C75.9523 51.376 76.6563 50.568 77.5683 49.976C78.4963 49.368 79.6083 49.064 80.9043 49.064C82.3923 49.064 83.5843 49.472 84.4803 50.288C85.3763 51.104 85.8243 52.272 85.8243 53.792C85.8243 54.208 85.6323 54.416 85.2483 54.416C84.5443 54.416 83.8403 54.408 83.1363 54.392C82.4323 54.376 81.7283 54.368 81.0243 54.368C80.5123 54.368 80.0003 54.368 79.4883 54.368C78.9763 54.368 78.4643 54.376 77.9523 54.392C77.9043 54.872 77.8803 55.36 77.8803 55.856C77.8803 56.304 77.9363 56.832 78.0483 57.44C78.1763 58.048 78.3603 58.64 78.6003 59.216C78.8563 59.792 79.1843 60.272 79.5843 60.656C79.9843 61.024 80.4723 61.208 81.0483 61.208C81.7683 61.208 82.3683 61.104 82.8483 60.896C83.3443 60.688 83.7843 60.392 84.1683 60.008C84.5523 59.624 84.9443 59.168 85.3443 58.64C85.3923 58.576 85.4403 58.528 85.4883 58.496C85.5523 58.448 85.6243 58.424 85.7043 58.424C85.8163 58.424 85.9203 58.472 86.0163 58.568C86.1283 58.648 86.1843 58.752 86.1843 58.88Z"/></svg>